# xmcd
#
# Track frame offsets:
#	150
#	2727
#	9246
#	27164
#	35245
#	61475
#	69752
#	91986
#	125554
#	161306
#	178051
#	210508
#
# Disc length: 3044 seconds
#
# Revision: 1
# Processed by: cddbd v1.5.1PL2 Copyright (c) Steve Scherf et al.
# Submitted via: audiograbber 1.83.01
#
DISCID=920be20c
DTITLE=Kingsmen - Not Quite As Big But Just As Live Again!
DYEAR=2000
DGENRE=Southern Gospel
TTITLE0=Introduction
TTITLE1=So High
TTITLE2=Just As The Son Went Down
TTITLE3=Wonderful Time In Heaven
TTITLE4=What A Happy Time
TTITLE5=Ready To Leave
TTITLE6=Glory Road
TTITLE7=When I Wake Up To Sleep No More
TTITLE8=Look For Me At Jesus' Feet
TTITLE9=Love Will Roll The Clouds Away
TTITLE10=Love Lifted Me
TTITLE11=I'd Rather Be An Old-Time Christian
EXTD=
EXTT0=
EXTT1=
EXTT2=
EXTT3=
EXTT4=
EXTT5=
EXTT6=
EXTT7=
EXTT8=
EXTT9=
EXTT10=
EXTT11=
PLAYORDER=
